<svg width="180" height="180" viewBox="0 0 180 180" fill="none" xmlns="http://www.w3.org/2000/svg">
  <style>
    @media (prefers-color-scheme: light) {
      .bg { fill: #6366f1; }
      .fg { fill: white; }
    }
    @media (prefers-color-scheme: dark) {
      .bg { fill: #818cf8; }
      .fg { fill: #1e1b4b; }
    }
  </style>
  <rect class="bg" width="180" height="180" rx="37"/>

  <!-- Fork (left) -->
  <g transform="translate(40, 45)">
    <rect class="fg" x="0" y="0" width="6" height="30" rx="3"/>
    <rect class="fg" x="14" y="0" width="6" height="35" rx="3"/>
    <rect class="fg" x="28" y="0" width="6" height="30" rx="3"/>
    <path class="fg" d="M0 35 Q17 40 34 35" stroke="currentColor" stroke-width="6" fill="none"/>
    <rect class="fg" x="14" y="35" width="6" height="55" rx="3"/>
  </g>

  <!-- Knife (right) -->
  <g transform="translate(110, 45)">
    <rect class="fg" x="10" y="0" width="8" height="50" rx="2"/>
    <path class="fg" d="M8 50 L14 80 L22 80 L28 50 Z"/>
    <rect class="fg" x="12" y="80" width="12" height="10" rx="2"/>
  </g>

  <!-- AI Sparkle -->
  <circle class="fg" cx="150" cy="50" r="4"/>
  <circle class="fg" cx="160" cy="65" r="3"/>
  <circle class="fg" cx="145" cy="70" r="2.5"/>
</svg>
